# xmcd CD database file
#
# Track frame offsets:
#	150
#	14107
#	27443
#	40325
#	51986
#	65924
#	78393
#	89461
#	102088
#	115813
#	129944
#	142739
#	170808
#	184277
#	199571
#	212119
#
# Disc length: 2989 seconds
#
# Revision: 1
# Processed by: cddbd v1.5.1PL2 Copyright (c) Steve Scherf et al.
# Submitted via: CDex 1.51
#
DISCID=e90bab10
DTITLE=Various Artist - Ultimate Piano Works [CD 4)
DYEAR=1900
DGENRE=Jazz
TTITLE0=George Shearing - East Of The Sun
TTITLE1=Earl Hines - Tantalizing A Cuban
TTITLE2=Erroll Garner - All Of Me
TTITLE3=Oscar Peterson - The Man I Love
TTITLE4=Erroll Garner - Embraceable You
TTITLE5=Art Tatum - Cocktails For Two
TTITLE6=Bud Powell - Tempus Fugit
TTITLE7=Erroll Garner - I Didn't Know
TTITLE8=Pete Johnson - Let 'em Jump
TTITLE9=Erroll Garner - Poor Butterfly
TTITLE10=Art Tatum - Danny Boy
TTITLE11=Dave Brubeck - These Foolish Things
TTITLE12=Teddy Wilson - Oh, Lady Be Good
TTITLE13=Willie Smith - Zig Zag
TTITLE14=Sammy Price - Untitled Boogie Woogie
TTITLE15=Art Tatum - Dardanella
EXTD=
EXTT0=
EXTT1=
EXTT2=
EXTT3=
EXTT4=
EXTT5=
EXTT6=
EXTT7=
EXTT8=
EXTT9=
EXTT10=
EXTT11=
EXTT12=
EXTT13=
EXTT14=
EXTT15=
PLAYORDER=
